<svg version="1.1" id="Layer_1" xmlns="http://www.w3.org/2000/svg" xmlns:xlink="http://www.w3.org/1999/xlink" x="0px" y="0px"
	 width="100%" viewBox="0 0 436 351" enable-background="new 0 0 436 351" xml:space="preserve">
<path fill="#FEFEFE" opacity="1.000000" stroke="none" 
	d="
M266.000000,352.000000 
	C177.333344,352.000000 89.166695,352.000000 1.000036,352.000000 
	C1.000024,235.000031 1.000024,118.000076 1.000012,1.000083 
	C146.333267,1.000055 291.666534,1.000055 436.999878,1.000028 
	C436.999908,117.999916 436.999908,234.999832 436.999939,351.999878 
	C380.166656,352.000000 323.333344,352.000000 266.000000,352.000000 
M245.005783,24.009798 
	C245.005783,24.009798 244.970398,24.045643 245.019821,23.257666 
	C245.048706,19.779264 243.620605,17.773020 239.977310,18.074549 
	C239.977310,18.074549 239.879196,18.181808 239.849625,17.419611 
	C236.583191,16.279867 233.370880,14.379776 230.040192,14.142675 
	C219.972198,13.425972 209.857178,13.125029 199.762955,13.173716 
	C196.790665,13.188051 193.826584,14.903912 190.115646,15.935947 
	C188.924362,16.348122 187.220810,16.399265 186.631363,17.235609 
	C184.211578,20.668917 182.130951,24.341255 179.147919,28.161865 
	C178.751038,29.842205 178.010483,31.523077 178.013107,33.202793 
	C178.029984,44.042435 177.007889,55.004551 181.293518,65.977859 
	C181.153900,66.314560 181.014297,66.651268 180.204727,67.108353 
	C178.690506,68.651733 178.259262,70.889114 174.792160,70.655907 
	C172.310089,70.488953 169.614914,73.490051 166.463806,75.207230 
	C166.087708,75.194283 165.711624,75.181343 164.507309,75.066055 
	C162.336472,76.021675 160.165619,76.977303 157.421585,78.244644 
	C156.617142,78.507103 155.812683,78.769554 154.601562,78.490959 
	C153.066635,79.304672 151.531693,80.118393 149.531189,81.073082 
	C149.531189,81.073082 149.053223,81.163544 148.757843,80.659081 
	C148.167160,81.059540 147.576492,81.459991 146.515503,82.009506 
	C146.515503,82.009506 146.026443,82.074692 145.587601,81.504944 
	C143.116577,80.383263 141.956787,81.240730 141.516693,84.030251 
	C141.516693,84.030251 141.032593,84.096069 140.729156,83.608986 
	C140.146729,84.021820 139.564285,84.434647 138.545746,84.982880 
	C138.545746,84.982880 138.093735,85.047745 137.280106,85.009720 
	C131.634186,85.971191 126.330193,87.564453 122.337242,93.012482 
	C121.047676,93.419662 119.758118,93.826843 117.642067,94.095741 
	C114.637108,95.240326 111.632149,96.384918 108.384056,97.622116 
	C108.192413,96.339684 108.417908,94.881622 107.792984,94.146423 
	C103.607239,89.221985 105.775688,85.306610 109.071434,81.023750 
	C110.024399,79.785370 109.903519,76.524223 108.917618,75.203979 
	C105.269279,70.318405 101.204597,65.712723 96.993805,61.289928 
	C94.507401,58.678345 83.754402,59.557613 80.552437,62.473782 
	C80.222107,62.591007 79.932678,62.526028 78.708084,62.078945 
	C74.695938,62.677177 70.435837,62.609783 66.716904,63.995136 
	C54.236629,68.644203 53.449661,80.405014 50.999596,91.042946 
	C50.999596,91.042946 51.082520,91.047958 50.394398,91.105209 
	C49.967773,91.807999 49.541149,92.510796 49.058228,93.839058 
	C48.728413,94.570084 48.398602,95.301109 47.330215,96.122643 
	C46.944443,97.179535 46.558666,98.236435 46.155190,100.023537 
	C44.934219,102.872292 43.880356,105.807228 42.463314,108.554871 
	C36.383480,120.343697 31.281637,132.407440 30.334471,145.882019 
	C29.779829,153.772461 28.777020,161.631882 28.255472,169.523727 
	C28.160892,170.954910 29.420757,172.475601 29.997627,173.992416 
	C29.997627,173.992416 30.052443,173.946533 29.879585,174.708725 
	C30.516907,175.824097 31.154228,176.939453 31.479212,178.766052 
	C30.977665,180.497360 30.476120,182.228683 29.310795,184.150192 
	C28.949047,185.130936 28.587297,186.111679 28.075039,187.807419 
	C27.967148,188.775681 27.859255,189.743942 27.070532,190.996460 
	C26.341791,193.619965 25.613050,196.243454 24.174147,199.129715 
	C23.827377,201.104599 23.480608,203.079498 23.074356,205.704269 
	C23.066963,206.139206 23.059568,206.574158 22.447813,207.559067 
	C22.278664,210.699646 22.109514,213.840225 21.175877,217.172836 
	C17.487583,223.360184 22.860350,228.209244 22.694702,233.876297 
	C23.455383,233.855286 24.216064,233.834274 24.976746,233.813263 
	C24.976746,229.195801 24.976746,224.578323 24.975515,219.084824 
	C24.999567,216.747971 25.023619,214.411118 25.003418,212.050751 
	C25.003418,212.050751 25.051626,212.049088 25.754902,211.874756 
	C26.106266,210.558868 26.457630,209.242981 26.923849,207.167465 
	C27.895512,203.754578 28.867174,200.341675 29.993258,196.228409 
	C31.014360,194.125671 32.035465,192.022934 33.688141,189.858093 
	C34.031166,189.202438 34.374191,188.546783 34.836117,187.375137 
	C34.884399,187.205368 34.932686,187.035599 35.674309,186.840729 
	C36.242386,185.803741 36.810463,184.766739 37.614685,183.160461 
	C37.675114,182.964096 37.735538,182.767746 38.595108,182.749832 
	C47.449135,186.159943 56.218925,189.818787 65.198006,192.859634 
	C68.868851,194.102798 73.082031,193.646957 76.893776,194.589630 
	C89.130829,197.615936 101.470840,198.057388 113.830460,196.085587 
	C119.565422,195.170654 125.130775,193.192612 130.996353,191.637299 
	C132.880722,196.205963 134.596405,201.135681 136.916275,205.762482 
	C139.020874,209.959946 141.783493,213.827454 144.853226,218.173553 
	C148.457626,222.989441 152.324600,227.635422 155.584869,232.673996 
	C158.282593,236.843185 160.264099,241.475830 162.307663,246.562180 
	C162.673767,247.322906 163.039871,248.083633 163.426651,249.536362 
	C163.540878,249.978027 163.655106,250.419708 163.351349,251.521820 
	C163.832336,253.032150 164.313339,254.542496 164.833557,256.855743 
	C164.964294,257.917877 165.095047,258.979980 164.928146,260.873199 
	C165.740982,264.527954 166.553818,268.182739 167.382523,272.724030 
	C167.400558,274.199677 167.418594,275.675354 166.769073,277.511932 
	C166.174454,280.419769 165.163681,283.313660 165.065796,286.238098 
	C164.806412,293.986938 164.725250,301.756805 165.005890,309.502625 
	C165.160080,313.758270 163.315842,314.640686 159.649185,314.263000 
	C149.261444,313.192963 138.785812,312.721283 128.488770,311.099640 
	C118.724747,309.561951 108.945702,307.490417 99.534752,304.511566 
	C89.511292,301.338898 79.911942,296.826324 69.868736,292.278534 
	C64.515251,289.002747 59.161774,285.726990 53.461605,282.159271 
	C53.461605,282.159271 53.052811,281.963531 53.001247,281.304810 
	C52.315121,280.896912 51.628998,280.489014 50.985989,280.006378 
	C50.985989,280.006378 50.917793,280.059326 50.825138,279.378143 
	C48.922222,277.877380 47.019306,276.376617 45.001450,275.000000 
	C45.001450,275.000000 45.120930,274.879791 45.017281,274.261475 
	C44.372425,273.811951 43.727570,273.362427 42.994854,272.987305 
	C42.994854,272.987305 43.088409,272.923401 43.075191,272.214325 
	C41.379116,270.481781 39.683044,268.749237 37.970680,267.007385 
	C37.970680,267.007385 37.962532,267.026825 37.942806,266.295471 
	C35.239304,261.564758 32.535801,256.834045 29.916626,251.325439 
	C28.908413,248.044098 27.971390,244.737885 26.840700,241.499313 
	C26.566416,240.713699 25.653837,240.150970 25.034750,239.485764 
	C24.374254,240.289597 23.003328,241.294464 23.164968,241.865631 
	C24.532164,246.696915 26.179049,251.449020 27.897884,256.957581 
	C30.299936,261.222046 32.701988,265.486481 35.619354,270.247223 
	C41.130051,277.401917 45.984001,285.204742 52.280003,291.584442 
	C68.344841,307.862762 88.276443,318.132812 109.659210,325.547485 
	C136.108704,334.719055 163.564331,339.022217 191.421814,338.236877 
	C208.931168,337.743256 226.391800,334.534637 243.811066,332.092987 
	C263.618378,329.316620 282.524292,322.967621 300.866150,315.320221 
	C324.246094,305.572235 345.846405,292.600189 365.103333,275.983521 
	C385.297577,258.558014 401.482941,238.177917 411.789795,212.880478 
	C416.232117,207.812286 416.991943,201.255325 417.776947,195.152283 
	C418.928314,186.200684 418.642822,177.064255 419.557831,167.460007 
	C419.695312,165.674789 420.064117,163.872009 419.930115,162.107407 
	C419.362030,154.625122 418.655273,147.153229 417.965912,139.680588 
	C417.894165,138.902786 417.602081,138.145294 417.373291,137.221085 
	C414.165710,136.801880 411.093170,136.400330 407.674500,135.505081 
	C407.109161,135.340073 406.543823,135.175064 405.902405,134.270157 
	C405.170929,132.825806 404.473145,131.363174 403.701385,129.940689 
	C401.763824,126.369553 399.792816,122.816582 397.876801,118.550858 
	C397.226471,118.047279 396.576141,117.543701 395.455566,116.616608 
	C395.273315,115.795509 395.091064,114.974411 394.966278,113.317741 
	C394.434479,111.678886 394.030884,109.984406 393.348389,108.410927 
	C390.579559,102.027786 387.611572,95.729050 384.937775,89.307297 
	C382.769714,84.100113 381.693726,78.275200 378.757019,73.586273 
	C373.271240,64.827301 365.076202,60.437965 353.920013,62.464722 
	C353.583435,62.492935 353.293304,62.390106 352.678436,61.434845 
	C348.686646,60.978500 344.700165,60.446377 340.696014,60.167164 
	C340.225525,60.134357 339.657990,61.492672 339.113831,62.095226 
	C339.113831,62.095226 339.207703,62.158016 338.444427,62.047905 
	C336.030182,63.797077 333.251709,65.213730 331.283264,67.369881 
	C327.960175,71.009834 324.573761,72.750267 319.609283,70.853790 
	C317.566559,70.073448 315.124390,70.338776 313.000031,70.037277 
	C313.000031,70.037277 312.885376,70.154411 312.831421,69.378448 
	C309.896515,68.901428 306.961639,68.424408 303.349335,68.019638 
	C302.906097,67.933647 302.462860,67.847656 301.882782,67.032875 
	C297.517395,65.697754 293.219788,63.572933 288.772583,63.191280 
	C279.402618,62.387188 269.954254,62.496487 259.703552,62.343910 
	C257.143738,62.325439 254.583908,62.306969 252.083130,61.431072 
	C252.554520,58.705975 253.204437,55.997578 253.461212,53.252403 
	C254.048264,46.976524 254.852844,40.669983 254.659012,34.404041 
	C254.602966,32.592197 251.455582,30.875982 249.088150,29.071503 
	C248.346024,28.155455 247.603897,27.239408 246.889435,25.612467 
	C246.245590,25.082935 245.601746,24.553406 245.005783,24.009798 
z"/>
<path fill="#15293D" opacity="1.000000" stroke="none" 
	d="
M165.225800,260.042114 
	C165.095047,258.979980 164.964294,257.917877 164.954132,256.107880 
	C164.639572,253.860458 164.204453,252.360916 163.769333,250.861374 
	C163.655106,250.419708 163.540878,249.978027 163.655182,249.028229 
	C163.443451,247.647797 163.003189,246.775467 162.562927,245.903137 
	C160.264099,241.475830 158.282593,236.843185 155.584869,232.673996 
	C152.324600,227.635422 148.457626,222.989441 144.527618,217.631561 
	C140.128235,207.277512 136.054459,197.465424 132.184616,188.144562 
	C126.048874,190.193939 119.823433,193.293076 113.281578,194.267136 
	C93.635696,197.192276 74.571198,193.670883 56.008678,187.123581 
	C50.017391,185.010376 44.138233,182.579224 38.034943,179.897278 
	C36.260719,178.618958 34.659332,177.736847 32.944778,176.563263 
	C31.905222,175.496719 30.978832,174.721619 30.052444,173.946533 
	C30.052443,173.946533 29.997627,173.992416 30.083275,173.513107 
	C31.225153,160.982925 30.918140,148.603317 33.722431,136.973969 
	C36.506401,125.428864 42.446980,114.649071 46.948547,103.511551 
	C48.356033,100.029221 49.585999,96.475136 51.009262,92.647751 
	C51.108372,91.910393 51.095444,91.479179 51.082520,91.047958 
	C51.082520,91.047958 50.999596,91.042946 51.349876,90.923965 
	C53.092403,87.318451 54.833981,83.925415 55.797779,80.324211 
	C57.377270,74.422508 60.344181,69.683945 65.970978,67.196472 
	C70.400940,65.238098 75.102966,63.895153 79.684151,62.278843 
	C79.932678,62.526028 80.222107,62.591007 81.065926,62.497612 
	C91.202080,59.802578 98.132042,63.604214 103.402206,71.494209 
	C103.756195,72.024170 104.437538,72.324898 104.850960,72.827408 
	C108.022926,76.682892 108.098366,79.837303 104.318932,83.248726 
	C101.330734,85.945953 101.264954,88.227417 103.444542,91.329247 
	C104.220284,92.433228 104.086983,94.175964 104.368637,95.627121 
	C102.633820,95.907372 100.669624,96.853828 99.204918,96.349541 
	C93.635521,94.432060 88.204811,92.099983 82.765617,89.819481 
	C77.395660,87.568024 76.416901,87.637207 74.619232,93.352715 
	C71.901398,101.993835 69.510643,110.769279 67.634621,119.626106 
	C67.006073,122.593513 68.376526,125.984352 68.782967,129.615814 
	C69.550728,135.030563 70.368767,140.011154 71.144547,145.323349 
	C71.790352,145.916443 72.665192,146.592194 73.139038,146.378540 
	C83.767113,141.586670 94.828514,140.815216 106.478485,142.705963 
	C107.154442,142.887360 107.545563,142.973419 108.002518,143.439804 
	C112.813675,146.048935 115.429771,145.156830 119.032539,140.035126 
	C119.000305,140.000000 119.066284,140.069321 119.444397,140.121613 
	C125.282013,137.517090 130.741516,134.860260 136.609406,132.164047 
	C145.725723,129.629730 154.219742,129.645142 162.565796,133.756165 
	C163.708755,134.319153 165.724075,133.583664 167.156525,133.005737 
	C173.846207,130.306702 180.289810,126.810890 187.176498,124.842056 
	C193.459122,123.045906 194.906769,119.079384 196.005203,113.484200 
	C197.562195,105.553223 193.047806,99.567863 190.875336,92.479568 
	C188.934875,89.066200 186.904541,86.008560 184.876083,82.644974 
	C184.275696,81.922401 183.673431,81.505760 182.983231,80.829262 
	C182.827057,80.399727 182.758835,80.230049 182.784363,79.684746 
	C182.314224,77.875725 181.750351,76.442322 181.161346,74.667694 
	C181.155060,73.870941 181.173904,73.415405 181.498596,72.788811 
	C182.396057,70.789062 182.711609,68.805984 183.631668,67.161034 
	C186.255280,62.470398 184.462601,51.012356 180.176575,46.477142 
	C180.133469,44.759815 180.167252,43.433891 180.556458,42.007568 
	C181.506882,39.889893 182.045975,37.853962 182.710892,35.859985 
	C183.568314,33.288628 183.848297,30.081633 185.575653,28.331308 
	C189.786942,24.063948 194.177155,19.688910 200.884903,19.323996 
	C204.143036,19.146749 207.393707,18.542913 210.603195,17.907228 
	C211.837128,17.662830 212.947235,16.793125 214.561554,16.121857 
	C218.974594,16.080866 222.939850,16.126358 226.998779,16.549860 
	C229.436569,17.247440 231.780655,17.567013 234.343597,17.892496 
	C234.562439,17.898407 234.978653,18.034346 235.039398,18.367735 
	C237.615189,21.058325 240.039413,23.522409 242.663040,25.751842 
	C249.395615,31.472815 250.835983,38.967640 249.936783,47.199680 
	C249.571411,50.544708 248.759354,53.840946 248.097519,57.539204 
	C247.667908,59.636559 247.291306,61.354092 246.894714,63.447586 
	C247.961517,66.544991 249.906921,69.261650 249.922119,71.989067 
	C249.942032,75.560410 248.437546,79.140251 247.250824,82.777115 
	C245.161850,84.573982 243.410843,86.310181 241.341309,88.035316 
	C240.821030,88.981155 240.619263,89.938057 240.297119,91.270554 
	C239.517395,93.515511 238.855179,95.383865 238.199295,97.254440 
	C236.811768,101.211563 233.931137,104.767166 235.681900,109.498077 
	C236.589249,111.949913 237.028915,114.677032 237.129486,117.300888 
	C237.274628,121.086853 239.277588,122.718719 242.593491,123.952728 
	C249.048386,126.354897 255.387772,129.083435 261.699066,131.850052 
	C266.025818,133.746735 269.567017,135.691193 274.914948,132.724197 
	C279.168762,130.364212 285.316071,130.124054 290.381622,130.786514 
	C301.327087,132.217926 311.084869,137.175201 320.236694,143.343307 
	C321.488892,144.187271 323.664703,144.015244 325.347900,143.801605 
	C331.358795,143.038681 337.390381,141.104538 343.322235,141.408295 
	C349.949005,141.747635 356.475677,144.042038 363.255768,145.531662 
	C366.256317,132.040787 368.759521,118.551315 363.854980,104.630539 
	C363.362335,103.540092 362.738007,102.753944 362.088440,101.760269 
	C362.063202,101.552742 361.875702,101.179008 361.921295,100.773453 
	C360.773468,96.976318 359.763611,93.500870 358.275604,90.243851 
	C357.824524,89.256630 355.743988,88.047974 354.933899,88.349373 
	C350.122162,90.139633 345.464386,92.343506 340.399750,94.520950 
	C336.532349,95.713577 333.129761,100.239334 329.635498,94.659698 
	C330.573914,92.716934 331.609741,91.142693 331.912628,89.438202 
	C332.164948,88.017967 332.107025,85.804901 331.232483,85.053810 
	C327.983368,82.263321 327.306885,78.843887 327.810669,74.607513 
	C331.710022,70.243462 335.458862,66.200745 339.207703,62.158020 
	C339.207703,62.158016 339.113831,62.095226 339.576355,62.155296 
	C344.375793,62.195652 348.712708,62.175941 353.049652,62.156231 
	C353.293304,62.390106 353.583435,62.492935 354.372009,62.657837 
	C356.910645,63.385818 358.972687,64.062012 361.088318,64.430634 
	C369.445129,65.886711 374.918274,70.556915 378.091339,78.465500 
	C382.875031,90.388390 388.032410,102.161331 393.005737,114.376968 
	C394.764740,118.791237 397.322632,122.668930 398.183105,126.892456 
	C400.448608,138.012207 402.106384,149.263214 403.750244,160.499420 
	C404.770599,167.473953 405.720856,174.641571 397.979492,178.996765 
	C397.979340,179.016739 398.017426,179.028778 397.680420,178.997299 
	C396.540771,179.626846 395.738098,180.287872 394.953796,180.978271 
	C394.972168,181.007660 394.960022,180.940125 394.568420,180.886200 
	C385.865997,184.003784 377.635010,187.412506 369.210724,190.246628 
	C365.000488,191.663071 360.427643,191.983368 356.035156,192.879608 
	C337.655548,196.629761 319.557648,197.617264 302.736816,187.634872 
	C297.159180,198.468796 291.607727,209.251862 286.030853,220.016357 
	C286.005432,219.997787 286.033142,220.054230 285.700012,220.095245 
	C284.867737,221.057938 284.368561,221.979614 283.930420,222.932953 
	C283.991394,222.964630 283.893311,222.868332 283.549072,222.900360 
	C271.558838,233.518234 267.891357,247.558456 266.100891,262.415253 
	C265.547058,267.010712 264.477661,271.604523 264.497681,276.195404 
	C264.533569,284.436584 265.215393,292.674927 265.285706,300.965302 
	C263.577240,301.852905 262.309113,303.060425 260.824738,303.455566 
	C256.689331,304.556396 252.473236,305.365173 248.272781,306.208466 
	C237.003403,308.470856 225.805862,311.330444 214.429871,312.759277 
	C201.478058,314.385986 188.351242,315.538177 175.324829,315.335144 
	C166.354706,315.195312 166.806915,317.149231 167.056656,307.101959 
	C167.304733,297.121307 167.319519,287.134888 167.436615,277.151001 
	C167.418594,275.675354 167.400558,274.199677 167.633163,272.022095 
	C166.997803,267.560791 166.111801,263.801453 165.225800,260.042114 
z"/>
<path fill="#FDFDFD" opacity="1.000000" stroke="none" 
	d="
M408.020630,135.998779 
	C411.093170,136.400330 414.165710,136.801880 417.373291,137.221085 
	C417.602081,138.145294 417.894165,138.902786 417.965912,139.680588 
	C418.655273,147.153229 419.362030,154.625122 419.930115,162.107407 
	C420.064117,163.872009 419.695312,165.674789 418.984497,167.455475 
	C417.574310,165.000595 416.737427,162.550262 415.923401,160.089752 
	C415.946259,160.079590 415.928711,160.093704 415.910034,159.743988 
	C414.968292,158.980301 414.045258,158.566315 413.122192,158.152344 
	C413.084412,158.769730 413.046692,159.387131 413.009277,160.379608 
	C412.975342,161.503693 412.941101,162.252686 412.626953,163.309204 
	C412.230927,168.750748 412.088806,173.884399 412.009399,179.018997 
	C411.968201,181.683136 412.038055,184.348984 412.079224,187.363770 
	C411.971680,188.156296 411.842621,188.599091 411.358276,189.086197 
	C409.291382,193.076645 407.453979,196.974396 405.911255,200.985489 
	C404.835175,203.783264 404.162842,206.736343 403.330933,209.742737 
	C403.351654,209.865417 403.167816,210.033112 402.795532,210.063843 
	C401.985138,211.110077 401.547058,212.125580 401.068817,213.095459 
	C401.028656,213.049820 401.142090,213.093582 400.766876,213.109070 
	C399.686951,214.609940 398.982239,216.095322 398.286560,217.712494 
	C398.295624,217.844315 398.095306,218.016678 397.735291,218.056000 
	C396.931396,219.084427 396.487549,220.073547 396.019470,221.037903 
	C395.995178,221.013153 396.060272,221.036697 395.712646,221.062317 
	C394.591309,222.413544 393.817627,223.739120 393.019836,225.038376 
	C392.995728,225.012054 393.061554,225.039413 392.701294,225.058380 
	C391.643219,226.144989 390.945435,227.212616 390.180664,228.174545 
	C390.113647,228.068848 390.289612,228.246841 389.920227,228.188507 
	C387.394775,230.792892 385.238708,233.455612 383.053833,236.070282 
	C383.025024,236.022232 383.119537,236.082443 382.757874,236.077789 
	C381.647552,237.112518 380.898865,238.151886 380.104828,239.134094 
	C380.059448,239.076920 380.190582,239.141037 379.836517,239.132858 
	C379.037811,239.816223 378.593201,240.507767 378.113708,241.132462 
	C378.078796,241.065613 378.198212,241.157684 377.837708,241.128418 
	C376.665710,242.088013 375.854187,243.076874 375.022766,244.034225 
	C375.002869,244.002701 375.065063,244.043808 374.684570,244.024536 
	C373.649689,244.792267 372.995331,245.579254 372.186462,246.195694 
	C372.031952,246.025146 372.358063,246.350006 371.988281,246.262207 
	C368.427246,249.149368 365.235962,252.124313 361.902496,255.411591 
	C360.200317,256.886841 358.722046,258.184021 357.067230,259.191132 
	C345.446899,266.263275 334.107330,273.889709 322.047455,280.117889 
	C311.912689,285.351868 300.925415,288.935089 289.909973,293.160461 
	C282.632538,295.077271 275.760681,297.082764 268.805878,299.112427 
	C267.880341,289.652771 266.221710,280.717590 266.403748,271.820099 
	C266.531006,265.600891 270.309784,259.453979 270.423676,253.237473 
	C270.584259,244.470856 274.887177,237.973328 279.109894,231.137100 
	C280.782593,228.429169 282.303375,225.627380 283.893311,222.868332 
	C283.893311,222.868332 283.991394,222.964630 284.287292,222.929077 
	C285.066498,221.947098 285.549805,221.000671 286.033142,220.054230 
	C286.033142,220.054230 286.005432,219.997787 286.392639,220.029785 
	C289.207886,217.078354 292.201538,214.389801 293.943268,211.048615 
	C297.319427,204.572250 299.991333,197.728790 302.821350,191.339325 
	C308.145203,192.962036 313.077759,195.524551 318.132416,195.793716 
	C329.993927,196.425339 341.933075,196.351364 353.802002,195.770493 
	C359.606201,195.486420 365.410217,193.731476 371.056671,192.097412 
	C376.860443,190.417801 382.570831,188.304138 388.123444,185.918091 
	C390.648987,184.832825 392.695953,182.633881 394.960022,180.940125 
	C394.960022,180.940125 394.972168,181.007660 395.314392,181.036438 
	C396.443542,180.386398 397.230469,179.707581 398.017426,179.028778 
	C398.017426,179.028778 397.979340,179.016739 398.356262,179.041199 
	C404.637238,177.921280 406.720978,174.429611 406.158081,168.448914 
	C405.368683,160.061707 405.203461,151.615753 404.981781,143.004761 
	C407.434418,145.180145 409.676453,147.545715 411.918518,149.911285 
	C412.186523,149.663681 412.454559,149.416061 412.722565,149.168457 
	C411.155243,144.778564 409.587952,140.388672 408.020630,135.998779 
z"/>
<path fill="#447AA1" opacity="1.000000" stroke="none" 
	d="
M403.167816,210.033112 
	C403.167816,210.033112 403.351654,209.865417 403.652405,209.577255 
	C406.356873,204.207275 408.760559,199.125458 411.521240,193.944855 
	C412.132111,192.729401 412.385986,191.612732 412.616272,190.254211 
	C412.601898,189.683136 412.677643,189.369995 413.130737,188.843140 
	C413.462250,187.876465 413.482971,187.139618 413.518066,186.072479 
	C413.733795,184.457458 413.935211,183.172729 414.630554,181.932236 
	C415.453186,181.969757 415.781830,181.963043 416.157379,182.406601 
	C416.091644,185.559540 415.979004,188.262222 415.493744,191.068710 
	C414.827576,193.239563 414.533997,195.306595 414.227417,197.763824 
	C413.176514,203.107269 412.138580,208.060516 411.100647,213.013763 
	C401.482941,238.177917 385.297577,258.558014 365.103333,275.983521 
	C345.846405,292.600189 324.246094,305.572235 300.866150,315.320221 
	C282.524292,322.967621 263.618378,329.316620 243.811066,332.092987 
	C226.391800,334.534637 208.931168,337.743256 191.421814,338.236877 
	C163.564331,339.022217 136.108704,334.719055 109.659210,325.547485 
	C88.276443,318.132812 68.344841,307.862762 52.280003,291.584442 
	C45.984001,285.204742 41.130051,277.401917 35.368649,269.672852 
	C34.452530,266.192291 36.248886,266.666351 37.962532,267.026825 
	C37.962532,267.026825 37.970680,267.007385 37.984245,267.367004 
	C39.694675,269.458862 41.391537,271.191132 43.088406,272.923401 
	C43.088409,272.923401 42.994854,272.987305 43.019485,273.294250 
	C43.736389,274.027374 44.428661,274.453583 45.120934,274.879791 
	C45.120930,274.879791 45.001450,275.000000 45.051407,275.291565 
	C47.040173,277.075195 48.978981,278.567261 50.917789,280.059326 
	C50.917793,280.059326 50.985989,280.006378 50.996662,280.376343 
	C51.689159,281.152069 52.370983,281.557800 53.052807,281.963531 
	C53.052811,281.963531 53.461605,282.159271 53.670509,282.634277 
	C59.295414,286.372437 64.711418,289.635590 70.127426,292.898743 
	C79.911942,296.826324 89.511292,301.338898 99.534752,304.511566 
	C108.945702,307.490417 118.724747,309.561951 128.488770,311.099640 
	C138.785812,312.721283 149.261444,313.192963 159.649185,314.263000 
	C163.315842,314.640686 165.160080,313.758270 165.005890,309.502625 
	C164.725250,301.756805 164.806412,293.986938 165.065796,286.238098 
	C165.163681,283.313660 166.174454,280.419769 167.102844,277.331482 
	C167.319519,287.134888 167.304733,297.121307 167.056656,307.101959 
	C166.806915,317.149231 166.354706,315.195312 175.324829,315.335144 
	C188.351242,315.538177 201.478058,314.385986 214.429871,312.759277 
	C225.805862,311.330444 237.003403,308.470856 248.272781,306.208466 
	C252.473236,305.365173 256.689331,304.556396 260.824738,303.455566 
	C262.309113,303.060425 263.577240,301.852905 265.596497,301.148499 
	C267.675659,301.148499 269.210999,301.311615 270.510956,300.834106 
	C277.145935,298.396790 283.720093,295.794006 290.315552,293.249146 
	C300.925415,288.935089 311.912689,285.351868 322.047455,280.117889 
	C334.107330,273.889709 345.446899,266.263275 357.067230,259.191132 
	C358.722046,258.184021 360.200317,256.886841 362.246033,255.341888 
	C365.940521,252.089905 369.149292,249.219955 372.358063,246.350006 
	C372.358063,246.350006 372.031952,246.025146 372.524048,246.177734 
	C373.699097,245.568161 374.382080,244.805984 375.065063,244.043793 
	C375.065063,244.043808 375.002869,244.002701 375.362915,244.018066 
	C376.548035,243.074844 377.373138,242.116272 378.198242,241.157684 
	C378.198212,241.157684 378.078796,241.065613 378.451111,241.114853 
	C379.279114,240.489746 379.734863,239.815384 380.190582,239.141037 
	C380.190582,239.141037 380.059448,239.076920 380.441467,239.093124 
	C381.588837,238.100372 382.354187,237.091400 383.119537,236.082428 
	C383.119537,236.082443 383.025024,236.022232 383.405365,236.057495 
	C385.953674,233.477463 388.121643,230.862152 390.289612,228.246857 
	C390.289612,228.246841 390.113647,228.068848 390.520081,228.128723 
	C391.638153,227.138855 392.349854,226.089127 393.061554,225.039413 
	C393.061554,225.039413 392.995728,225.012054 393.347046,224.957047 
	C394.485687,223.613602 395.272980,222.325150 396.060272,221.036697 
	C396.060272,221.036697 395.995178,221.013153 396.354736,220.960602 
	C397.174622,219.944260 397.634949,218.980469 398.095306,218.016678 
	C398.095306,218.016678 398.295624,217.844315 398.612671,217.573685 
	C399.667175,215.899887 400.404633,214.496735 401.142090,213.093582 
	C401.142090,213.093582 401.028656,213.049820 401.413483,213.027496 
	C402.254822,212.014481 402.711304,211.023804 403.167816,210.033112 
z"/>
<path fill="#6FB6E6" opacity="1.000000" stroke="none" 
	d="
M181.192749,72.959877 
	C181.173904,73.415405 181.155060,73.870941 181.052246,75.037338 
	C181.542389,77.185593 182.116516,78.622978 182.690628,80.060364 
	C182.758835,80.230049 182.827057,80.399727 182.955933,81.143875 
	C183.635788,82.129196 184.254990,82.540054 184.874207,82.950912 
	C186.904541,86.008560 188.934875,89.066200 190.439880,92.522949 
	C187.108124,93.079002 184.124924,92.671921 181.524689,93.486786 
	C167.393616,97.915161 153.204407,102.232315 139.323135,107.366264 
	C117.618919,115.393517 97.504990,126.557610 78.396393,140.119507 
	C75.793884,141.790405 73.490349,143.391068 71.186813,144.991730 
	C70.368767,140.011154 69.550728,135.030563 69.117180,129.501923 
	C69.919121,128.693451 70.357979,128.461731 70.750885,128.168442 
	C81.309349,120.286743 91.779121,112.282616 102.453957,104.561974 
	C107.593552,100.844727 113.118248,97.659935 118.468559,94.234024 
	C119.758118,93.826843 121.047676,93.419662 123.012238,92.895340 
	C128.489395,90.201378 133.291565,87.624565 138.093735,85.047745 
	C138.093735,85.047745 138.545746,84.982880 139.061554,84.962517 
	C140.062454,84.660126 140.547516,84.378098 141.032593,84.096069 
	C141.032593,84.096069 141.516693,84.030251 142.087234,84.001686 
	C143.780670,83.340317 144.903564,82.707512 146.026443,82.074692 
	C146.026443,82.074692 146.515503,82.009506 147.048615,81.979477 
	C148.072235,81.687477 148.562729,81.425514 149.053223,81.163544 
	C149.053223,81.163544 149.531189,81.073082 150.118118,81.033478 
	C152.139450,80.339920 153.573853,79.685966 155.008240,79.032013 
	C155.812683,78.769554 156.617142,78.507103 158.097336,78.127411 
	C160.960571,77.062920 163.148041,76.115662 165.335526,75.168404 
	C165.711624,75.181343 166.087708,75.194283 167.160919,75.155731 
	C171.847870,74.333275 175.837723,73.562309 180.168030,72.840256 
	C180.736572,72.912735 180.964661,72.936310 181.192749,72.959877 
z"/>
<path fill="#70B6E4" opacity="1.000000" stroke="none" 
	d="
M327.660156,74.928864 
	C327.306885,78.843887 327.983368,82.263321 331.232483,85.053810 
	C332.107025,85.804901 332.164948,88.017967 331.912628,89.438202 
	C331.609741,91.142693 330.573914,92.716934 329.335754,94.656036 
	C328.651001,93.592072 328.485992,92.219650 328.218750,89.996666 
	C323.225830,89.233261 318.044525,88.347534 312.836700,87.663589 
	C300.724091,86.072845 288.632416,84.162048 276.467743,83.179688 
	C266.891418,82.406349 257.218719,82.826439 247.588806,82.716438 
	C248.437546,79.140251 249.942032,75.560410 249.922119,71.989067 
	C249.906921,69.261650 247.961517,66.544991 247.277130,63.379028 
	C249.127716,62.719173 250.575897,62.503834 252.024094,62.288498 
	C254.583908,62.306969 257.143738,62.325439 260.333862,62.640778 
	C261.529999,63.243610 262.073914,63.763577 262.664856,63.824089 
	C275.779968,65.167213 288.900299,66.459618 302.019623,67.761665 
	C302.462860,67.847656 302.906097,67.933647 303.869080,68.319725 
	C307.220978,69.131348 310.053192,69.642876 312.885376,70.154411 
	C312.885376,70.154411 313.000031,70.037277 313.039703,70.436836 
	C317.939636,72.200554 322.799896,73.564705 327.660156,74.928864 
z"/>
<path fill="#EFF2F3" opacity="1.000000" stroke="none" 
	d="
M118.055313,94.164886 
	C113.118248,97.659935 107.593552,100.844727 102.453957,104.561974 
	C91.779121,112.282616 81.309349,120.286743 70.750885,128.168442 
	C70.357979,128.461731 69.919121,128.693451 69.167465,129.067749 
	C68.376526,125.984352 67.006073,122.593513 67.634621,119.626106 
	C69.510643,110.769279 71.901398,101.993835 74.619232,93.352715 
	C76.416901,87.637207 77.395660,87.568024 82.765617,89.819481 
	C88.204811,92.099983 93.635521,94.432060 99.204918,96.349541 
	C100.669624,96.853828 102.633820,95.907372 104.368637,95.627121 
	C104.086983,94.175964 104.220284,92.433228 103.444542,91.329247 
	C101.264954,88.227417 101.330734,85.945953 104.318932,83.248726 
	C108.098366,79.837303 108.022926,76.682892 104.850960,72.827408 
	C104.437538,72.324898 103.756195,72.024170 103.402206,71.494209 
	C98.132042,63.604214 91.202080,59.802578 81.258133,62.366386 
	C83.754402,59.557613 94.507401,58.678345 96.993805,61.289928 
	C101.204597,65.712723 105.269279,70.318405 108.917618,75.203979 
	C109.903519,76.524223 110.024399,79.785370 109.071434,81.023750 
	C105.775688,85.306610 103.607239,89.221985 107.792984,94.146423 
	C108.417908,94.881622 108.192413,96.339684 108.384056,97.622116 
	C111.632149,96.384918 114.637108,95.240326 118.055313,94.164886 
z"/>
<path fill="#C7CFD3" opacity="1.000000" stroke="none" 
	d="
M38.207787,180.293518 
	C44.138233,182.579224 50.017391,185.010376 56.008678,187.123581 
	C74.571198,193.670883 93.635696,197.192276 113.281578,194.267136 
	C119.823433,193.293076 126.048874,190.193939 132.184616,188.144562 
	C136.054459,197.465424 140.128235,207.277512 144.229019,217.464996 
	C141.783493,213.827454 139.020874,209.959946 136.916275,205.762482 
	C134.596405,201.135681 132.880722,196.205963 130.996353,191.637299 
	C125.130775,193.192612 119.565422,195.170654 113.830460,196.085587 
	C101.470840,198.057388 89.130829,197.615936 76.893776,194.589630 
	C73.082031,193.646957 68.868851,194.102798 65.198006,192.859634 
	C56.218925,189.818787 47.449135,186.159943 38.219032,182.428192 
	C37.964565,181.502197 38.086178,180.897858 38.207787,180.293518 
z"/>
<path fill="#B3C4CE" opacity="1.000000" stroke="none" 
	d="
M404.771210,143.194931 
	C405.203461,151.615753 405.368683,160.061707 406.158081,168.448914 
	C406.720978,174.429611 404.637238,177.921280 398.356415,179.021225 
	C405.720856,174.641571 404.770599,167.473953 403.750244,160.499420 
	C402.106384,149.263214 400.448608,138.012207 398.183105,126.892456 
	C397.322632,122.668930 394.764740,118.791237 393.319580,114.395523 
	C394.075409,114.074516 394.492126,114.113914 394.908813,114.153320 
	C395.091064,114.974411 395.273315,115.795509 395.744415,117.143646 
	C396.633911,118.199242 397.234558,118.727798 397.835205,119.256340 
	C399.792816,122.816582 401.763824,126.369553 403.701385,129.940689 
	C404.473145,131.363174 405.170929,132.825806 405.885925,134.930450 
	C404.996033,135.839386 404.122559,136.088028 402.470825,136.558228 
	C403.179596,138.603073 403.975403,140.899002 404.771210,143.194931 
z"/>
<path fill="#ADB5BC" opacity="1.000000" stroke="none" 
	d="
M50.897224,92.953903 
	C49.585999,96.475136 48.356033,100.029221 46.948547,103.511551 
	C42.446980,114.649071 36.506401,125.428864 33.722431,136.973969 
	C30.918140,148.603317 31.225153,160.982925 30.112129,173.494385 
	C29.420757,172.475601 28.160892,170.954910 28.255472,169.523727 
	C28.777020,161.631882 29.779829,153.772461 30.334471,145.882019 
	C31.281637,132.407440 36.383480,120.343697 42.463314,108.554871 
	C43.880356,105.807228 44.934219,102.872292 46.482979,99.528793 
	C47.230110,98.033401 47.649445,97.032768 48.068787,96.032135 
	C48.398602,95.301109 48.728413,94.570084 49.380352,93.465424 
	C50.100727,93.045830 50.498974,92.999870 50.897224,92.953903 
z"/>
<path fill="#EFF2F3" opacity="1.000000" stroke="none" 
	d="
M394.937561,113.735527 
	C394.492126,114.113914 394.075409,114.074516 393.344818,114.016563 
	C388.032410,102.161331 382.875031,90.388390 378.091339,78.465500 
	C374.918274,70.556915 369.445129,65.886711 361.088318,64.430634 
	C358.972687,64.062012 356.910645,63.385818 354.583923,62.552002 
	C365.076202,60.437965 373.271240,64.827301 378.757019,73.586273 
	C381.693726,78.275200 382.769714,84.100113 384.937775,89.307297 
	C387.611572,95.729050 390.579559,102.027786 393.348389,108.410927 
	C394.030884,109.984406 394.434479,111.678886 394.937561,113.735527 
z"/>
<path fill="#E8EFF3" opacity="1.000000" stroke="none" 
	d="
M415.866333,190.964890 
	C415.979004,188.262222 416.091644,185.559540 416.241516,181.964233 
	C415.867279,177.866913 415.455872,174.662247 415.206726,171.244598 
	C415.254242,170.538193 415.139435,170.044785 415.304749,169.398621 
	C415.707092,168.845551 415.829315,168.445236 416.008820,167.603592 
	C416.010925,164.808136 415.955719,162.454041 415.900543,160.099930 
	C416.737427,162.550262 417.574310,165.000595 418.690369,167.728760 
	C418.642822,177.064255 418.928314,186.200684 417.776947,195.152283 
	C416.991943,201.255325 416.232117,207.812286 411.445221,212.947113 
	C412.138580,208.060516 413.176514,203.107269 414.568787,197.586380 
	C415.237518,195.000778 415.551910,192.982834 415.866333,190.964890 
z"/>
<path fill="#687682" opacity="1.000000" stroke="none" 
	d="
M248.150543,57.159386 
	C248.759354,53.840946 249.571411,50.544708 249.936783,47.199680 
	C250.835983,38.967640 249.395615,31.472815 242.663040,25.751842 
	C240.039413,23.522409 237.615189,21.058325 235.442078,18.273521 
	C237.149078,17.957882 238.514130,18.069845 239.879196,18.181808 
	C239.879196,18.181808 239.977310,18.074549 240.047134,18.421768 
	C241.734772,20.527874 243.352585,22.286757 244.970398,24.045643 
	C244.970398,24.045643 245.005783,24.009798 244.977295,24.358217 
	C245.586472,25.245543 246.224121,25.784447 246.861771,26.323357 
	C247.603897,27.239408 248.346024,28.155455 249.458710,29.481632 
	C253.298157,36.558399 252.332916,43.576992 251.162003,50.498562 
	C250.768921,52.822155 249.188339,54.944859 248.150543,57.159386 
z"/>
<path fill="#EFF2F3" opacity="1.000000" stroke="none" 
	d="
M248.097534,57.539207 
	C249.188339,54.944859 250.768921,52.822155 251.162003,50.498562 
	C252.332916,43.576992 253.298157,36.558399 249.777344,29.503843 
	C251.455582,30.875982 254.602966,32.592197 254.659012,34.404041 
	C254.852844,40.669983 254.048264,46.976524 253.461212,53.252403 
	C253.204437,55.997578 252.554520,58.705975 252.053619,61.859787 
	C250.575897,62.503834 249.127716,62.719173 247.297104,63.003067 
	C247.291306,61.354092 247.667908,59.636559 248.097534,57.539207 
z"/>
<path fill="#EFF2F3" opacity="1.000000" stroke="none" 
	d="
M79.196121,62.178894 
	C75.102966,63.895153 70.400940,65.238098 65.970978,67.196472 
	C60.344181,69.683945 57.377270,74.422508 55.797779,80.324211 
	C54.833981,83.925415 53.092403,87.318451 51.382675,90.949463 
	C53.449661,80.405014 54.236629,68.644203 66.716904,63.995136 
	C70.435837,62.609783 74.695938,62.677177 79.196121,62.178894 
z"/>
<path fill="#7AB8E0" opacity="1.000000" stroke="none" 
	d="
M38.034946,179.897293 
	C38.086178,180.897858 37.964565,181.502197 37.819458,182.338959 
	C37.735538,182.767746 37.675114,182.964096 37.226944,183.549881 
	C36.219795,184.914810 35.600384,185.890320 34.980972,186.865829 
	C34.932686,187.035599 34.884399,187.205368 34.490417,187.698593 
	C33.781998,188.654770 33.419281,189.287476 33.056564,189.920197 
	C32.035465,192.022934 31.014360,194.125671 29.616726,196.638702 
	C28.569887,197.402863 27.899576,197.756744 26.947832,198.259201 
	C27.237806,195.535675 27.494585,193.123932 27.751362,190.712204 
	C27.859255,189.743942 27.967148,188.775681 28.476921,187.369598 
	C29.244059,185.941177 29.609318,184.950577 29.974575,183.959991 
	C30.476120,182.228683 30.977665,180.497360 31.837952,178.334198 
	C32.483776,177.553146 32.770863,177.203934 33.057953,176.854736 
	C34.659332,177.736847 36.260719,178.618958 38.034946,179.897293 
z"/>
<path fill="#EFF2F3" opacity="1.000000" stroke="none" 
	d="
M239.864410,17.800709 
	C238.514130,18.069845 237.149078,17.957882 235.381332,17.940132 
	C234.978653,18.034346 234.562439,17.898407 234.221375,17.528568 
	C231.555222,16.829773 229.230164,16.500813 226.905090,16.171852 
	C222.939850,16.126358 218.974594,16.080866 214.093323,16.028183 
	C205.828079,16.059576 198.478882,16.098156 191.061096,16.063316 
	C190.992523,15.989896 190.858734,15.839986 190.858734,15.839985 
	C193.826584,14.903912 196.790665,13.188051 199.762955,13.173716 
	C209.857178,13.125029 219.972198,13.425972 230.040192,14.142675 
	C233.370880,14.379776 236.583191,16.279867 239.864410,17.800709 
z"/>
<path fill="#EFF2F3" opacity="1.000000" stroke="none" 
	d="
M301.951202,67.397270 
	C288.900299,66.459618 275.779968,65.167213 262.664856,63.824089 
	C262.073914,63.763577 261.529999,63.243610 260.751160,62.584309 
	C269.954254,62.496487 279.402618,62.387188 288.772583,63.191280 
	C293.219788,63.572933 297.517395,65.697754 301.951202,67.397270 
z"/>
<path fill="#78A2BC" opacity="1.000000" stroke="none" 
	d="
M37.952667,266.661133 
	C36.248886,266.666351 34.452530,266.192291 35.110992,269.424713 
	C32.701988,265.486481 30.299936,261.222046 27.867182,256.204407 
	C27.538305,253.665466 27.240131,251.879715 26.907091,249.885147 
	C28.155813,250.832062 28.994053,251.467682 29.832298,252.103317 
	C32.535801,256.834045 35.239304,261.564758 37.952667,266.661133 
z"/>
<path fill="#EFF2F3" opacity="1.000000" stroke="none" 
	d="
M180.201035,42.107964 
	C180.167252,43.433891 180.133469,44.759815 180.032104,46.898857 
	C180.801025,51.015274 181.911301,54.279869 182.385651,57.634384 
	C182.751877,60.224380 186.448257,63.575264 181.249039,65.423599 
	C177.007889,55.004551 178.029984,44.042435 178.013107,33.202793 
	C178.010483,31.523077 178.751038,29.842205 179.660950,28.167561 
	C180.173981,28.173256 180.422501,28.420794 180.333954,28.848118 
	C180.230621,33.552952 180.215836,37.830456 180.201035,42.107964 
z"/>
<path fill="#EFF2F3" opacity="1.000000" stroke="none" 
	d="
M327.810669,74.607513 
	C322.799896,73.564705 317.939636,72.200554 312.971619,70.482430 
	C315.124390,70.338776 317.566559,70.073448 319.609283,70.853790 
	C324.573761,72.750267 327.960175,71.009834 331.283264,67.369881 
	C333.251709,65.213730 336.030182,63.797077 338.826050,62.102966 
	C335.458862,66.200745 331.710022,70.243462 327.810669,74.607513 
z"/>
<path fill="#687682" opacity="1.000000" stroke="none" 
	d="
M181.271271,65.700729 
	C186.448257,63.575264 182.751877,60.224380 182.385651,57.634384 
	C181.911301,54.279869 180.801025,51.015274 180.109009,47.290253 
	C184.462601,51.012356 186.255280,62.470398 183.631668,67.161034 
	C182.711609,68.805984 182.396057,70.789062 181.498611,72.788811 
	C180.964661,72.936310 180.736572,72.912735 180.275299,72.494308 
	C180.319641,70.395630 180.597168,68.691803 180.874695,66.987976 
	C181.014297,66.651268 181.153900,66.314560 181.271271,65.700729 
z"/>
<path fill="#E8EFF3" opacity="1.000000" stroke="none" 
	d="
M404.981781,143.004761 
	C403.975403,140.899002 403.179596,138.603073 402.470825,136.558228 
	C404.122559,136.088028 404.996033,135.839386 405.923981,135.300400 
	C406.543823,135.175064 407.109161,135.340073 407.847565,135.751923 
	C409.587952,140.388672 411.155243,144.778564 412.722565,149.168457 
	C412.454559,149.416061 412.186523,149.663681 411.918518,149.911285 
	C409.676453,147.545715 407.434418,145.180145 404.981781,143.004761 
z"/>
<path fill="#B1C9D8" opacity="1.000000" stroke="none" 
	d="
M29.874460,251.714386 
	C28.994053,251.467682 28.155813,250.832062 26.907091,249.885147 
	C27.240131,251.879715 27.538305,253.665466 27.789211,255.838074 
	C26.179049,251.449020 24.532164,246.696915 23.164968,241.865631 
	C23.003328,241.294464 24.374254,240.289597 25.034756,239.485764 
	C25.653837,240.150970 26.566416,240.713699 26.840700,241.499313 
	C27.971390,244.737885 28.908413,248.044098 29.874460,251.714386 
z"/>
<path fill="#F0F7FB" opacity="1.000000" stroke="none" 
	d="
M24.976742,219.960876 
	C24.976746,224.578323 24.976746,229.195801 24.976746,233.813263 
	C24.216064,233.834274 23.455383,233.855286 22.694702,233.876297 
	C22.860350,228.209244 17.487583,223.360184 21.591986,217.448425 
	C22.997643,218.469620 23.987192,219.215240 24.976742,219.960876 
z"/>
<path fill="#A1D1EF" opacity="1.000000" stroke="none" 
	d="
M27.410946,190.854340 
	C27.494585,193.123932 27.237806,195.535675 26.947832,198.259201 
	C27.899576,197.756744 28.569887,197.402863 29.539516,196.988892 
	C28.867174,200.341675 27.895512,203.754578 26.528994,207.645966 
	C25.773300,209.432663 25.412464,210.740875 25.051628,212.049088 
	C25.051626,212.049088 25.003418,212.050751 24.750397,211.826538 
	C24.015642,210.071259 23.533907,208.540176 23.052174,207.009094 
	C23.059568,206.574158 23.066963,206.139206 23.464699,205.276169 
	C24.198132,202.854370 24.541220,200.860657 24.884310,198.866959 
	C25.613050,196.243454 26.341791,193.619965 27.410946,190.854340 
z"/>
<path fill="#EFF2F3" opacity="1.000000" stroke="none" 
	d="
M180.049759,28.049452 
	C182.130951,24.341255 184.211578,20.668917 186.631363,17.235609 
	C187.220810,16.399265 188.924362,16.348122 190.487183,15.887966 
	C190.858734,15.839986 190.992523,15.989896 190.970154,16.420687 
	C189.981293,17.812290 188.194229,18.765083 188.184753,19.735245 
	C188.132675,25.064707 183.413300,25.919195 180.422501,28.420794 
	C180.422501,28.420794 180.173981,28.173256 180.049759,28.049452 
z"/>
<path fill="#7FA7C1" opacity="1.000000" stroke="none" 
	d="
M69.998077,292.588623 
	C64.711418,289.635590 59.295414,286.372437 53.843849,282.780243 
	C59.161774,285.726990 64.515251,289.002747 69.998077,292.588623 
z"/>
<path fill="#EFF2F3" opacity="1.000000" stroke="none" 
	d="
M180.539703,67.048164 
	C180.597168,68.691803 180.319641,70.395630 179.934845,72.445404 
	C175.837723,73.562309 171.847870,74.333275 167.436432,75.090942 
	C169.614914,73.490051 172.310089,70.488953 174.792160,70.655907 
	C178.259262,70.889114 178.690506,68.651733 180.539703,67.048164 
z"/>
<path fill="#EFF2F3" opacity="1.000000" stroke="none" 
	d="
M137.686920,85.028732 
	C133.291565,87.624565 128.489395,90.201378 123.329742,92.765793 
	C126.330193,87.564453 131.634186,85.971191 137.686920,85.028732 
z"/>
<path fill="#C0E0F4" opacity="1.000000" stroke="none" 
	d="
M22.749992,207.284088 
	C23.533907,208.540176 24.015642,210.071259 24.772524,211.838303 
	C25.023619,214.411118 24.999567,216.747971 24.976128,219.522858 
	C23.987192,219.215240 22.997643,218.469620 21.974230,217.352402 
	C22.109514,213.840225 22.278664,210.699646 22.749992,207.284088 
z"/>
<path fill="#EFF2F3" opacity="1.000000" stroke="none" 
	d="
M352.864044,61.795540 
	C348.712708,62.175941 344.375793,62.195652 339.587128,62.210732 
	C339.657990,61.492672 340.225525,60.134357 340.696014,60.167164 
	C344.700165,60.446377 348.686646,60.978500 352.864044,61.795540 
z"/>
<path fill="#447AA1" opacity="1.000000" stroke="none" 
	d="
M165.076965,260.457642 
	C166.111801,263.801453 166.997803,267.560791 167.625214,271.578796 
	C166.553818,268.182739 165.740982,264.527954 165.076965,260.457642 
z"/>
<path fill="#EFF2F3" opacity="1.000000" stroke="none" 
	d="
M312.858398,69.766434 
	C310.053192,69.642876 307.220978,69.131348 304.207764,68.283600 
	C306.961639,68.424408 309.896515,68.901428 312.858398,69.766434 
z"/>
<path fill="#7FA7C1" opacity="1.000000" stroke="none" 
	d="
M43.081795,272.568848 
	C41.391537,271.191132 39.694675,269.458862 37.992393,267.371643 
	C39.683044,268.749237 41.379116,270.481781 43.081795,272.568848 
z"/>
<path fill="#7FA7C1" opacity="1.000000" stroke="none" 
	d="
M50.871460,279.718750 
	C48.978981,278.567261 47.040173,277.075195 45.108879,275.229492 
	C47.019306,276.376617 48.922222,277.877380 50.871460,279.718750 
z"/>
<path fill="#EFF2F3" opacity="1.000000" stroke="none" 
	d="
M244.995117,23.651653 
	C243.352585,22.286757 241.734772,20.527874 239.981613,18.453230 
	C243.620605,17.773020 245.048706,19.779264 244.995117,23.651653 
z"/>
<path fill="#EFF2F3" opacity="1.000000" stroke="none" 
	d="
M164.921417,75.117233 
	C163.148041,76.115662 160.960571,77.062920 158.383926,77.971558 
	C160.165619,76.977303 162.336472,76.021675 164.921417,75.117233 
z"/>
<path fill="#C0E0F4" opacity="1.000000" stroke="none" 
	d="
M24.529228,198.998337 
	C24.541220,200.860657 24.198132,202.854370 23.494442,204.951233 
	C23.480608,203.079498 23.827377,201.104599 24.529228,198.998337 
z"/>
<path fill="#EFF2F3" opacity="1.000000" stroke="none" 
	d="
M145.807022,81.789825 
	C144.903564,82.707512 143.780670,83.340317 142.321472,83.932373 
	C141.956787,81.240730 143.116577,80.383263 145.807022,81.789825 
z"/>
<path fill="#EFF2F3" opacity="1.000000" stroke="none" 
	d="
M154.804901,78.761490 
	C153.573853,79.685966 152.139450,80.339920 150.350891,80.962997 
	C151.531693,80.118393 153.066635,79.304672 154.804901,78.761490 
z"/>
<path fill="#447AA1" opacity="1.000000" stroke="none" 
	d="
M163.560333,251.191589 
	C164.204453,252.360916 164.639572,253.860458 164.934509,255.706421 
	C164.313339,254.542496 163.832336,253.032150 163.560333,251.191589 
z"/>
<path fill="#ADB5BC" opacity="1.000000" stroke="none" 
	d="
M32.944778,176.563263 
	C32.770863,177.203934 32.483776,177.553146 31.994120,177.978577 
	C31.154228,176.939453 30.516907,175.824097 29.966015,174.327637 
	C30.978832,174.721619 31.905222,175.496719 32.944778,176.563263 
z"/>
<path fill="#C0E0F4" opacity="1.000000" stroke="none" 
	d="
M25.403265,211.961914 
	C25.412464,210.740875 25.773300,209.432663 26.471565,208.025772 
	C26.457630,209.242981 26.106266,210.558868 25.403265,211.961914 
z"/>
<path fill="#C7CFD3" opacity="1.000000" stroke="none" 
	d="
M35.327641,186.853271 
	C35.600384,185.890320 36.219795,184.914810 37.108871,183.834534 
	C36.810463,184.766739 36.242386,185.803741 35.327641,186.853271 
z"/>
<path fill="#A1D1EF" opacity="1.000000" stroke="none" 
	d="
M29.642685,184.055084 
	C29.609318,184.950577 29.244059,185.941177 28.552174,187.012085 
	C28.587297,186.111679 28.949047,185.130936 29.642685,184.055084 
z"/>
<path fill="#447AA1" opacity="1.000000" stroke="none" 
	d="
M162.435303,246.232666 
	C163.003189,246.775467 163.443451,247.647797 163.644836,248.682236 
	C163.039871,248.083633 162.673767,247.322906 162.435303,246.232666 
z"/>
<path fill="#EFF2F3" opacity="1.000000" stroke="none" 
	d="
M47.699501,96.077393 
	C47.649445,97.032768 47.230110,98.033401 46.491829,99.163689 
	C46.558666,98.236435 46.944443,97.179535 47.699501,96.077393 
z"/>
<path fill="#EFF2F3" opacity="1.000000" stroke="none" 
	d="
M51.009258,92.647758 
	C50.498974,92.999870 50.100727,93.045830 49.408501,93.152695 
	C49.541149,92.510796 49.967773,91.807999 50.738457,91.076584 
	C51.095444,91.479179 51.108372,91.910393 51.009258,92.647758 
z"/>
<path fill="#7FA7C1" opacity="1.000000" stroke="none" 
	d="
M53.027023,281.634155 
	C52.370983,281.557800 51.689159,281.152069 50.975105,280.413727 
	C51.628998,280.489014 52.315121,280.896912 53.027023,281.634155 
z"/>
<path fill="#EFF2F3" opacity="1.000000" stroke="none" 
	d="
M140.880875,83.852524 
	C140.547516,84.378098 140.062454,84.660126 139.279617,84.894821 
	C139.564285,84.434647 140.146729,84.021820 140.880875,83.852524 
z"/>
<path fill="#7FA7C1" opacity="1.000000" stroke="none" 
	d="
M45.069107,274.570618 
	C44.428661,274.453583 43.736389,274.027374 43.063416,273.257050 
	C43.727570,273.362427 44.372425,273.811951 45.069107,274.570618 
z"/>
<path fill="#EFF2F3" opacity="1.000000" stroke="none" 
	d="
M246.875610,25.967909 
	C246.224121,25.784447 245.586472,25.245543 244.953369,24.365257 
	C245.601746,24.553406 246.245590,25.082935 246.875610,25.967909 
z"/>
<path fill="#C7CFD3" opacity="1.000000" stroke="none" 
	d="
M33.372353,189.889145 
	C33.419281,189.287476 33.781998,188.654770 34.430969,187.956589 
	C34.374191,188.546783 34.031166,189.202438 33.372353,189.889145 
z"/>
<path fill="#EFF2F3" opacity="1.000000" stroke="none" 
	d="
M397.856018,118.903603 
	C397.234558,118.727798 396.633911,118.199242 395.979553,117.355408 
	C396.576141,117.543701 397.226471,118.047279 397.856018,118.903603 
z"/>
<path fill="#EFF2F3" opacity="1.000000" stroke="none" 
	d="
M148.905533,80.911316 
	C148.562729,81.425514 148.072235,81.687477 147.283783,81.904938 
	C147.576492,81.459991 148.167160,81.059540 148.905533,80.911316 
z"/>
<path fill="#F9FAFB" opacity="1.000000" stroke="none" 
	d="
M247.250824,82.777115 
	C257.218719,82.826439 266.891418,82.406349 276.467743,83.179688 
	C288.632416,84.162048 300.724091,86.072845 312.836700,87.663589 
	C318.044525,88.347534 323.225830,89.233261 328.218750,89.996666 
	C328.485992,92.219650 328.651001,93.592072 329.115723,94.968155 
	C333.129761,100.239334 336.532349,95.713577 340.800476,94.683662 
	C344.172821,95.535072 346.796967,96.312332 349.404083,97.143105 
	C353.567230,98.469711 357.719086,99.831879 361.875702,101.179016 
	C361.875702,101.179008 362.063202,101.552742 361.993225,102.089760 
	C362.523285,103.396118 363.123322,104.165466 363.723328,104.934814 
	C368.759521,118.551315 366.256317,132.040787 363.255768,145.531662 
	C356.475677,144.042038 349.949005,141.747635 343.322235,141.408295 
	C337.390381,141.104538 331.358795,143.038681 325.347900,143.801605 
	C323.664703,144.015244 321.488892,144.187271 320.236694,143.343307 
	C311.084869,137.175201 301.327087,132.217926 290.381622,130.786514 
	C285.316071,130.124054 279.168762,130.364212 274.914948,132.724197 
	C269.567017,135.691193 266.025818,133.746735 261.699066,131.850052 
	C255.387772,129.083435 249.048386,126.354897 242.593491,123.952728 
	C239.277588,122.718719 237.274628,121.086853 237.129486,117.300888 
	C237.028915,114.677032 236.589249,111.949913 235.681900,109.498077 
	C233.931137,104.767166 236.811768,101.211563 238.199295,97.254440 
	C238.855179,95.383865 239.517395,93.515511 240.621094,91.292816 
	C241.263596,89.975113 241.461716,89.010742 241.659836,88.046371 
	C243.410843,86.310181 245.161850,84.573982 247.250824,82.777115 
z"/>
<path fill="#F6F8F9" opacity="1.000000" stroke="none" 
	d="
M78.695358,140.049271 
	C97.504990,126.557610 117.618919,115.393517 139.323135,107.366264 
	C153.204407,102.232315 167.393616,97.915161 181.524689,93.486786 
	C184.124924,92.671921 187.108124,93.079002 190.349991,92.878677 
	C193.047806,99.567863 197.562195,105.553223 196.005203,113.484200 
	C194.906769,119.079384 193.459122,123.045906 187.176498,124.842056 
	C180.289810,126.810890 173.846207,130.306702 167.156525,133.005737 
	C165.724075,133.583664 163.708755,134.319153 162.565796,133.756165 
	C154.219742,129.645142 145.725723,129.629730 136.212555,132.067215 
	C129.465820,133.693695 123.260017,134.841736 119.066284,140.069321 
	C119.066284,140.069321 119.000305,140.000000 118.654228,139.972687 
	C114.850998,140.983398 111.393845,142.021454 107.936691,143.059494 
	C107.545563,142.973419 107.154442,142.887360 106.391190,142.343063 
	C105.382248,141.386841 104.737495,140.447220 104.109810,140.458481 
	C97.071510,140.584839 90.036903,140.921982 82.998596,141.037399 
	C81.569962,141.060837 80.130066,140.396530 78.695358,140.049271 
z"/>
<path fill="#D4D8DB" opacity="1.000000" stroke="none" 
	d="
M394.568420,180.886200 
	C392.695953,182.633881 390.648987,184.832825 388.123444,185.918091 
	C382.570831,188.304138 376.860443,190.417801 371.056671,192.097412 
	C365.410217,193.731476 359.606201,195.486420 353.802002,195.770493 
	C341.933075,196.351364 329.993927,196.425339 318.132416,195.793716 
	C313.077759,195.524551 308.145203,192.962036 302.821350,191.339325 
	C299.991333,197.728790 297.319427,204.572250 293.943268,211.048615 
	C292.201538,214.389801 289.207886,217.078354 286.418091,220.048340 
	C291.607727,209.251862 297.159180,198.468796 302.736816,187.634872 
	C319.557648,197.617264 337.655548,196.629761 356.035156,192.879608 
	C360.427643,191.983368 365.000488,191.663071 369.210724,190.246628 
	C377.635010,187.412506 385.865997,184.003784 394.568420,180.886200 
z"/>
<path fill="#D4D8DB" opacity="1.000000" stroke="none" 
	d="
M289.909973,293.160461 
	C283.720093,295.794006 277.145935,298.396790 270.510956,300.834106 
	C269.210999,301.311615 267.675659,301.148499 265.938110,301.097656 
	C265.215393,292.674927 264.533569,284.436584 264.497681,276.195404 
	C264.477661,271.604523 265.547058,267.010712 266.100891,262.415253 
	C267.891357,247.558456 271.558838,233.518234 283.549072,222.900360 
	C282.303375,225.627380 280.782593,228.429169 279.109894,231.137100 
	C274.887177,237.973328 270.584259,244.470856 270.423676,253.237473 
	C270.309784,259.453979 266.531006,265.600891 266.403748,271.820099 
	C266.221710,280.717590 267.880341,289.652771 268.805878,299.112427 
	C275.760681,297.082764 282.632538,295.077271 289.909973,293.160461 
z"/>
<path fill="#687682" opacity="1.000000" stroke="none" 
	d="
M180.333954,28.848118 
	C183.413300,25.919195 188.132675,25.064707 188.184753,19.735245 
	C188.194229,18.765083 189.981293,17.812290 191.038727,16.494106 
	C198.478882,16.098156 205.828079,16.059576 213.645523,16.114668 
	C212.947235,16.793125 211.837128,17.662830 210.603195,17.907228 
	C207.393707,18.542913 204.143036,19.146749 200.884903,19.323996 
	C194.177155,19.688910 189.786942,24.063948 185.575653,28.331308 
	C183.848297,30.081633 183.568314,33.288628 182.710892,35.859985 
	C182.045975,37.853962 181.506882,39.889893 180.556458,42.007568 
	C180.215836,37.830456 180.230621,33.552952 180.333954,28.848118 
z"/>
<path fill="#6DACD7" opacity="1.000000" stroke="none" 
	d="
M361.921295,100.773460 
	C357.719086,99.831879 353.567230,98.469711 349.404083,97.143105 
	C346.796967,96.312332 344.172821,95.535072 341.155579,94.571091 
	C345.464386,92.343506 350.122162,90.139633 354.933899,88.349373 
	C355.743988,88.047974 357.824524,89.256630 358.275604,90.243851 
	C359.763611,93.500870 360.773468,96.976318 361.921295,100.773460 
z"/>
<path fill="#99A9B5" opacity="1.000000" stroke="none" 
	d="
M78.396393,140.119507 
	C80.130066,140.396530 81.569962,141.060837 82.998596,141.037399 
	C90.036903,140.921982 97.071510,140.584839 104.109810,140.458481 
	C104.737495,140.447220 105.382248,141.386841 106.106369,142.247742 
	C94.828514,140.815216 83.767113,141.586670 73.139038,146.378540 
	C72.665192,146.592194 71.790352,145.916443 71.144554,145.323349 
	C73.490349,143.391068 75.793884,141.790405 78.396393,140.119507 
z"/>
<path fill="#99A9B5" opacity="1.000000" stroke="none" 
	d="
M119.444397,140.121613 
	C123.260017,134.841736 129.465820,133.693695 135.804169,132.106598 
	C130.741516,134.860260 125.282013,137.517090 119.444397,140.121613 
z"/>
<path fill="#99A9B5" opacity="1.000000" stroke="none" 
	d="
M108.002518,143.439804 
	C111.393845,142.021454 114.850998,140.983398 118.686462,140.007797 
	C115.429771,145.156830 112.813675,146.048935 108.002518,143.439804 
z"/>
<path fill="#687682" opacity="1.000000" stroke="none" 
	d="
M226.998779,16.549860 
	C229.230164,16.500813 231.555222,16.829773 234.002518,17.522659 
	C231.780655,17.567013 229.436569,17.247440 226.998779,16.549860 
z"/>
<path fill="#687682" opacity="1.000000" stroke="none" 
	d="
M182.784363,79.684746 
	C182.116516,78.622978 181.542389,77.185593 181.077377,75.378563 
	C181.750351,76.442322 182.314224,77.875725 182.784363,79.684746 
z"/>
<path fill="#D4D8DB" opacity="1.000000" stroke="none" 
	d="
M397.680420,178.997299 
	C397.230469,179.707581 396.443542,180.386398 395.296021,181.007050 
	C395.738098,180.287872 396.540771,179.626846 397.680420,178.997299 
z"/>
<path fill="#70B6E4" opacity="1.000000" stroke="none" 
	d="
M241.341309,88.035309 
	C241.461716,89.010742 241.263596,89.975113 240.741470,90.917221 
	C240.619263,89.938057 240.821030,88.981155 241.341309,88.035309 
z"/>
<path fill="#6DACD7" opacity="1.000000" stroke="none" 
	d="
M363.854980,104.630531 
	C363.123322,104.165466 362.523285,103.396118 362.018433,102.297287 
	C362.738007,102.753944 363.362335,103.540092 363.854980,104.630531 
z"/>
<path fill="#D4D8DB" opacity="1.000000" stroke="none" 
	d="
M285.700012,220.095245 
	C285.549805,221.000671 285.066498,221.947098 284.226288,222.897400 
	C284.368561,221.979614 284.867737,221.057938 285.700012,220.095245 
z"/>
<path fill="#687682" opacity="1.000000" stroke="none" 
	d="
M184.876083,82.644974 
	C184.254990,82.540054 183.635788,82.129196 183.043869,81.403725 
	C183.673431,81.505760 184.275696,81.922401 184.876083,82.644974 
z"/>
<path fill="#E8EFF3" opacity="1.000000" stroke="none" 
	d="
M412.819916,189.072952 
	C412.677643,189.369995 412.601898,189.683136 412.315125,190.427704 
	C411.746490,191.909897 411.455383,192.976776 411.164246,194.043640 
	C408.760559,199.125458 406.356873,204.207275 403.631683,209.454575 
	C404.162842,206.736343 404.835175,203.783264 405.911255,200.985489 
	C407.453979,196.974396 409.291382,193.076645 411.635620,189.088791 
	C412.452148,189.055725 412.636047,189.064346 412.819916,189.072952 
z"/>
<path fill="#E8EFF3" opacity="1.000000" stroke="none" 
	d="
M414.136597,181.888000 
	C413.935211,183.172729 413.733795,184.457458 413.283997,186.191895 
	C412.709625,186.765762 412.383728,186.889908 412.057800,187.014069 
	C412.038055,184.348984 411.968201,181.683136 412.009399,179.018997 
	C412.088806,173.884399 412.230927,168.750748 412.926453,163.588135 
	C413.726868,166.717453 413.947937,169.875336 414.125702,173.461731 
	C414.100464,176.556168 414.118530,179.222076 414.136597,181.888000 
z"/>
<path fill="#E8EFF3" opacity="1.000000" stroke="none" 
	d="
M371.988281,246.262222 
	C369.149292,249.219955 365.940521,252.089905 362.388214,255.029541 
	C365.235962,252.124313 368.427246,249.149368 371.988281,246.262222 
z"/>
<path fill="#90B3C9" opacity="1.000000" stroke="none" 
	d="
M414.169006,173.033203 
	C413.947937,169.875336 413.726868,166.717453 413.206299,163.280624 
	C412.941101,162.252686 412.975342,161.503693 413.374451,160.397278 
	C414.469086,160.057800 415.198883,160.075745 415.928711,160.093704 
	C415.928711,160.093704 415.946259,160.079590 415.923401,160.089752 
	C415.955719,162.454041 416.010925,164.808136 415.761475,167.786316 
	C415.312744,168.790710 415.168701,169.171036 415.024628,169.551376 
	C415.139435,170.044785 415.254242,170.538193 415.145508,171.549896 
	C414.671021,172.389862 414.420013,172.711533 414.169006,173.033203 
z"/>
<path fill="#E8EFF3" opacity="1.000000" stroke="none" 
	d="
M389.920227,228.188507 
	C388.121643,230.862152 385.953674,233.477463 383.434174,236.105560 
	C385.238708,233.455612 387.394775,230.792892 389.920227,228.188507 
z"/>
<path fill="#E8EFF3" opacity="1.000000" stroke="none" 
	d="
M415.910034,159.743988 
	C415.198883,160.075745 414.469086,160.057800 413.374084,160.022186 
	C413.046692,159.387131 413.084412,158.769730 413.122192,158.152344 
	C414.045258,158.566315 414.968292,158.980301 415.910034,159.743988 
z"/>
<path fill="#E8EFF3" opacity="1.000000" stroke="none" 
	d="
M400.766876,213.109070 
	C400.404633,214.496735 399.667175,215.899887 398.603638,217.441864 
	C398.982239,216.095322 399.686951,214.609940 400.766876,213.109070 
z"/>
<path fill="#E8EFF3" opacity="1.000000" stroke="none" 
	d="
M395.712646,221.062317 
	C395.272980,222.325150 394.485687,223.613602 393.371155,224.983368 
	C393.817627,223.739120 394.591309,222.413544 395.712646,221.062317 
z"/>
<path fill="#E8EFF3" opacity="1.000000" stroke="none" 
	d="
M392.701294,225.058380 
	C392.349854,226.089127 391.638153,227.138855 390.587067,228.234406 
	C390.945435,227.212616 391.643219,226.144989 392.701294,225.058380 
z"/>
<path fill="#E8EFF3" opacity="1.000000" stroke="none" 
	d="
M377.837738,241.128418 
	C377.373138,242.116272 376.548035,243.074844 375.382812,244.049591 
	C375.854187,243.076874 376.665710,242.088013 377.837738,241.128418 
z"/>
<path fill="#E8EFF3" opacity="1.000000" stroke="none" 
	d="
M382.757874,236.077789 
	C382.354187,237.091400 381.588837,238.100372 380.486877,239.150299 
	C380.898865,238.151886 381.647552,237.112518 382.757874,236.077789 
z"/>
<path fill="#E8EFF3" opacity="1.000000" stroke="none" 
	d="
M374.684570,244.024536 
	C374.382080,244.805984 373.699097,245.568161 372.678558,246.348297 
	C372.995331,245.579254 373.649689,244.792267 374.684570,244.024536 
z"/>
<path fill="#E8EFF3" opacity="1.000000" stroke="none" 
	d="
M397.735291,218.056000 
	C397.634949,218.980469 397.174622,219.944260 396.379028,220.985352 
	C396.487549,220.073547 396.931396,219.084427 397.735291,218.056000 
z"/>
<path fill="#E8EFF3" opacity="1.000000" stroke="none" 
	d="
M402.795532,210.063843 
	C402.711304,211.023804 402.254822,212.014481 401.453644,213.073135 
	C401.547058,212.125580 401.985138,211.110077 402.795532,210.063843 
z"/>
<path fill="#6695B3" opacity="1.000000" stroke="none" 
	d="
M412.079254,187.363770 
	C412.383728,186.889908 412.709625,186.765762 413.269623,186.522186 
	C413.482971,187.139618 413.462250,187.876465 413.130737,188.843140 
	C412.636047,189.064346 412.452148,189.055725 411.990906,189.044495 
	C411.842621,188.599091 411.971680,188.156296 412.079254,187.363770 
z"/>
<path fill="#E8EFF3" opacity="1.000000" stroke="none" 
	d="
M379.836517,239.132858 
	C379.734863,239.815384 379.279114,240.489746 378.485992,241.181702 
	C378.593201,240.507767 379.037811,239.816223 379.836517,239.132858 
z"/>
<path fill="#6695B3" opacity="1.000000" stroke="none" 
	d="
M414.125702,173.461731 
	C414.420013,172.711533 414.671021,172.389862 414.983246,171.762878 
	C415.455872,174.662247 415.867279,177.866913 416.194580,181.513947 
	C415.781830,181.963043 415.453186,181.969757 414.630554,181.932236 
	C414.118530,179.222076 414.100464,176.556168 414.125702,173.461731 
z"/>
<path fill="#6695B3" opacity="1.000000" stroke="none" 
	d="
M415.493713,191.068710 
	C415.551910,192.982834 415.237518,195.000778 414.581757,197.196182 
	C414.533997,195.306595 414.827576,193.239563 415.493713,191.068710 
z"/>
<path fill="#6695B3" opacity="1.000000" stroke="none" 
	d="
M411.521240,193.944855 
	C411.455383,192.976776 411.746490,191.909897 412.338745,190.669556 
	C412.385986,191.612732 412.132111,192.729401 411.521240,193.944855 
z"/>
<path fill="#6695B3" opacity="1.000000" stroke="none" 
	d="
M415.304749,169.398621 
	C415.168701,169.171036 415.312744,168.790710 415.704163,168.227661 
	C415.829315,168.445236 415.707092,168.845551 415.304749,169.398621 
z"/>
</svg>